<?xml version="1.0" encoding="UTF-8"?>
<svg id="Ebene_1" xmlns="http://www.w3.org/2000/svg" version="1.1" viewBox="0 0 226.3254 229.31653">
  <!-- Generator: Adobe Illustrator 30.3.0, SVG Export Plug-In . SVG Version: 2.1.3 Build 182)  -->
  <path d="M120.84552,215.92552l-10.33327,1.34125v-23.67298c0-.02696-.12514-.52305-.26688-.46861l-4.43656,24.80523-12.05374,1.59855c-1.48432-7.1695-2.65275-14.42071-4.07946-21.6073-.09274-.46712-.18471-.99294-.29536-1.44826-.04604-.18943-.15258-.73711-.33973-.80068v24.67892l-10.19787,1.47639c.04184-.13436-.1354-.28687-.1354-.33634v-32.12283l16.90768-2.27883,4.29431,23.46985,4.15274-24.61995,16.78355-2.27137v32.25695Z" fill="#e2107f"/>
  <path d="M151.04014,211.76766v-32.45814l19.39304-2.68111c6.48618-.43592,9.51488,1.52832,10.63615,8.01024,1.50186,8.68207,1.05901,23.28368-10.40534,24.41033l-19.62385,2.71867ZM161.50761,202.91544c2.9545-.63219,8.19297.01832,9.0882-3.72569.65965-2.75877.75029-10.0757-.03347-12.76798-1.03403-3.55198-6.46193-1.08452-9.05473-1.21077v17.70444Z" fill="#e2107f"/>
  <path d="M120.57713,142.96177v32.25695l-10.46747,1.54243v-12.07121l-9.25244,1.21383-.1401,12.13291-10.33462,1.3399v-32.25695l10.01831-1.46811c.14268-.06462.44916.09223.44916.19393v12.67477l9.20146-1.33237.18684-12.82334,10.33885-1.40273Z" fill="#29285b"/>
  <path d="M30.79917,166.43405l-10.13028,1.34389c-.53632-.08933-.28487-.79153-.3723-1.24295-.11744-.60641-.37919-1.41851-.91203-1.77096-1.70251-1.12613-7.49065-.25348-8.78623,1.39799-.88461,1.12762-.35899,2.60111,1.00179,2.89493,1.09063.23549,2.79652.26643,3.96129.33287,3.32728.18981,12.02948-.00267,14.15726,2.78197,2.85312,3.73389.45012,11.01651-2.88199,13.84102-4.23982,3.59394-17.2497,5.62849-22.21045,3.29253-3.07194-1.44654-4.7782-5.5424-4.50134-8.79787l10.07054-1.47288c.16265.00783.26731.06628.31878.22846.26171.82457-.01428,2.18674.88967,2.866,1.5336,1.1524,6.22346.29101,7.88197-.57805,1.20397-.63088,2.02168-2.26679.68794-3.15866-.78439-.52452-3.71053-.63919-4.8039-.69785-3.95713-.2123-12.51569.18933-14.45762-4.05952-1.98662-4.34661.42665-10.63372,4.22243-13.26759,4.33137-3.00551,14.54941-4.58619,19.58398-3.283,4.14772,1.07364,6.52088,5.20531,6.28051,9.34966Z" fill="#29285b"/>
  <path d="M72.61162,219.48975c-4.43916,4.84042-18.97878,7.55551-24.03539,3.01137-6.01116-5.40194-4.90379-21.76911,1.21526-26.95855,4.74092-4.02068,18.15985-6.51117,23.08168-2.15351,5.88354,5.20913,4.84281,20.53495-.26155,26.10069ZM61.1003,198.79765c-1.76093.13966-4.26177.98207-5.09659,2.68547-1.20277,2.45417-1.10046,9.56288-.58668,12.30323.24652,1.31485.61908,2.4864,1.95392,3.00977,2.34287.91859,6.74678.05792,8.02691-2.30265,1.27185-2.34529,1.19084-9.88314.66089-12.5501-.57623-2.89982-2.18004-3.36606-4.95844-3.14571Z" fill="#e2107f"/>
  <path d="M180.16118,155.10004c.31632,3.59107,2.11508,4.50528,5.53178,3.91924,3.16403-.5427,4.4341-2.25785,4.66557-5.39633l.06021-20.46088,10.41097-1.39062.00447,21.72555c-.46939,8.23576-5.97922,11.24025-13.39522,12.6323-7.50016,1.40785-17.55631,1.86607-17.74387-8.34816l-.0094-21.71136c.03521-.12994,1.18765-.29441,1.43442-.33338,2.21356-.34957,4.48655-.65598,6.70888-.93996.48724-.06226,1.65378-.27063,2.03009-.25806.16414.00548.20634.04836.30209.17472v20.38693Z" fill="#29285b"/>
  <path d="M168.08328,168.8465l-10.7035,1.38397-1.66033-6.59543-8.88242,1.21315-.20102.20146-1.62852,6.95634-10.60744,1.40116,9.52189-33.73712,13.89895-1.93831.80582.12918,9.45656,30.98559ZM153.98113,156.6319c-.65689-3.7077-1.75062-7.35874-2.53997-11.05313l-.40034-.33624-2.55097,12.07051,5.49128-.68114Z" fill="#29285b"/>
  <path d="M32.40883,206.87212c-.14969-1.46453-.75523-3.11485-2.38041-3.38826-2.34337-.39424-5.82401.39806-6.80954,2.78735-1.02546,2.4861-1.05926,10.42756-.26758,13.00398.7416,2.41347,3.10074,2.71408,5.33053,2.24964,2.77642-.57829,3.84634-2.14444,4.12487-4.86374.04577-.44689-.13392-1.64635.13502-1.87693l10.46948-1.4077c.00325,4.47419-1.95564,9.97299-5.78288,12.5297-4.77373,3.189-17.40259,5.32238-21.80106.88893-5.61361-5.65825-4.54546-21.4631,1.48569-26.69224,4.36359-3.78333,16.51209-5.9973,21.52393-3.01096,3.19845,1.90582,4.7073,6.9539,4.56647,10.51128l-10.29083,1.4571-.30369-.17629c-.04729-.65061.06525-1.37348,0-2.01187Z" fill="#e2107f"/>
  <path d="M87.56434,154.76473l-13.95663,1.87774v5.23086l12.74884-1.60949v6.77329l-12.74884,2.01187v5.29792l13.73362-1.85924c.07325.02352.22301.13587.22301.18268v6.97448c-.21652.22985-.59104.27294-.88817.31944-7.71544,1.20741-15.51935,1.92098-23.22045,3.22821-.14237.06222-.44967-.09192-.44967-.19454v-32.05577c.39239-.28479,1.05986-.37237,1.55952-.45321,6.92539-1.12043,14.36716-2.12305,21.33756-2.95076.27535-.0327,1.66121-.24433,1.66121.05085v7.17566Z" fill="#29285b"/>
  <path d="M148.49038,186.95462l-13.86516,1.87257c-.0881.02669-.22567.30482-.22567.34048v4.82848l12.88304-1.54243v6.77329l-.61218.32703-12.03622,1.61894c-.09754.0191-.23464.29114-.23464.33415v5.02967l14.09082-1.74362v7.04154l-24.55829,3.5543v-32.25695l24.55829-3.35311v7.17566Z" fill="#e2107f"/>
  <path d="M192.64162,194.39854c-3.93729-6.02322-7.92612-12.04852-11.78392-18.13234-.11602-.18296-.65695-.93343-.4324-1.05163l11.0516-1.5248,6.4656,11.11619,6.27364-12.83899c.21144-.20454,3.6864-.49859,4.31169-.58707,1.97272-.27914,3.95958-.67884,5.93725-.90624.15021-.01727.9914-.08063.99149.05196l-12.31491,22.56423-.03928,11.42886-10.46076,1.34748v-11.46765Z" fill="#e2107f"/>
  <path d="M225.25181,149.86919c-.01136.06863-.13322.30748-.23053.33681l-11.1853,1.53197-.18344,10.68075-10.40925,1.46649v-32.45814l22.74303-3.09178c.11153-.00607.33908.13535.33908.20811v6.97448l-12.61464,2.01187v6.97448c0,.27128,1.2546.08394,1.52699.05086,2.89267-.35125,6.15711-1.14497,9.0097-1.32265.34719-.02163.78185-.09459,1.00437.19879v6.43798Z" fill="#29285b"/>
  <path d="M60.85887,151.14337v7.37685l-8.84234,1.22136-.07414,24.94063-10.40808,1.46767v-24.61185c0-.04724-.14809-.21305-.14892-.32332l-8.65433,1.18889c-.11186.03077-.32223-.1377-.32223-.19494v-7.17566l28.45004-3.88961Z" fill="#29285b"/>
  <path d="M112.31218,46.96076c-6.46775-6.53811-14.29755-10.84667-22.64464-12.46063-17.42254-3.58693-35.28012,6.29808-42.46123,23.50284-4.50048,10.35524-5.19676,22.44135-1.96107,34.03137,3.24241,11.54967,10.1359,21.51125,19.40689,28.0478,6.94315,5.0514,15.1304,7.69892,23.37507,7.6984,2.99308,0,5.99443-.34866,8.94509-1.05839l.04345.00259c.13864,0,.27417-.0269.40297-.08018l.13915-.06518c5.94942-1.53378,11.22843-4.43116,15.68753-8.61091,12.41097-11.35776,17.28338-30.85879,12.12387-48.52239-2.37853-8.479-6.89349-16.25448-13.05707-22.48532ZM99.68705,123.23454c-11.10583,4.00905-23.70717,2.12712-33.70857-5.03381l-.00362-.00259c-8.87732-6.13772-15.50182-15.63735-18.65422-26.75094-4.88586-16.82403-.32952-35.31478,11.33965-46.01402,2.79495-2.61493,6.03995-4.73585,9.60154-6.28774l.07139-.01397c3.10533-.87527,6.2448-1.29428,9.3641-1.29428,17.82551,0,34.9475,13.68455,40.69311,34.06551,3.05929,10.85132,2.48406,22.22874-1.61914,32.03564-3.59624,8.59539-9.51566,15.27317-17.08423,19.29618ZM114.11703,113.1902c8.07344-11.38362,10.51301-26.962,6.31257-41.86272-2.80478-9.94916-8.24674-18.62111-15.73719-25.07852-6.07875-5.24073-13.27693-8.70041-20.63391-9.97554,1.73036.09363,3.44209.32124,5.1202.68076,15.39681,3.11671,28.79788,16.49503,33.3475,33.2937,4.4353,15.62079,1.12305,32.02891-8.40917,42.94231Z" fill="#29285b"/>
  <path d="M108.36263,74.14364c-1.39825-.76043-2.93876-.7925-4.23097-.08794-.22916.12932-.3321.38745-.25658.64145.07604.25554.31659.41642.54006.40659.62851.04759,1.22496.17174,1.77691.36935-.06828.35538-.19968.77853-.34814,1.11684-5.37626,11.86367-31.10864,14.96952-43.03905,13.94217l-.13864-.01707c.44539-1.13702,1.44843-1.92538,2.8472-2.23317.24313-.04035.42936-.21675.47436-.44694.06052-.30158-.13501-.59696-.43763-.65904-1.14685-.2302-2.32007-.00569-3.29983.63162-.97097.60834-1.69208,1.71432-1.92641,2.95118-.30934,1.39049-.11743,3.01791.56023,4.71826.20537.44591.41798.90682.68438,1.3517.1076.1764.30003.28451.50488.28451h.015c.32538-.00828.58299-.27986.57472-.60058-.00362-.41798-.05432-.81681-.10346-1.20271-.04087-.32072-.07915-.62334-.09415-.95338-.05173-.47798-.0838-.9151-.09622-1.31911,4.60342,6.90797,11.28171,12.08094,18.89166,14.61362,4.0137,1.39256,7.96429,2.64183,12.14405,2.64183.07294,0,.15053.00931.2183-.00103,3.14464,0,6.36223-1.01442,8.8468-2.78564.28451.03362.55609-.04656.77594-.21985.22554-.17743.36521-.43401.3947-.71801.56282-.50954,1.0646-1.0558,1.49188-1.62483l.10346-.13812-.0838-.15053c-.0957-.17071-.31245-.23278-.48005-.14174-.52868.27986-1.05115.55247-1.57206.81836-.7537-1.15409-2.64804-4.48651-3.09602-9.36927-.51937-5.66595,3.3138-12.31269,3.85024-13.21123,2.04487-1.85502,3.45244-3.93352,4.18906-6.18272.52868.45626,1.01287.98648,1.51775,1.55603.20899.25658.4247.52143.69421.77232.12467.11743.29176.17433.46505.15467.32176-.03466.55506-.32538.52143-.63886-.13036-1.7138-1.26065-3.38932-2.87927-4.26873ZM101.17635,106.26412c-.74491.33883-1.35014.58558-1.93883.7925-5.55214,2.15609-11.51191.33469-17.14734-1.71691-2.90514-.97614-5.69595-2.36456-8.30157-4.13061.78732-.31348,1.68432-.44332,2.55596-.56903l.36107-.05276c2.08057-.19916,4.15699-.20795,6.13565-.03518.08173.01966.16502.02949.24675.02949l.02742-.00103c3.14413.30365,6.05133,1.06356,8.62229,2.2492.23951.13346.5204.06414.66731-.16657.14743-.23071.09311-.52402-.13398-.68852-1.88658-1.25806-4.01836-2.22644-6.34619-2.88393,5.88942-2.73132,11.34482.13088,12.62668.89647.76456,3.01998,1.90986,5.14865,2.62476,6.27687ZM97.89358,96.15563c.03466.38073.08225.77388.14588,1.21151-2.81357-1.23841-9.05734-3.09809-15.21058,1.05218-2.07694-.31969-4.21803-.4009-6.38137-.24158-1.69984.22709-3.45554.53644-4.68101,1.55654-1.5731-1.23272-3.06964-2.60769-4.44926-4.09078l-.00052-.00052c-.87475-.93372-1.69363-1.89072-2.44009-2.85082,8.99475.3859,25.13387-1.23375,35.19218-7.27163-1.25962,2.89893-2.51975,6.87021-2.17523,10.63509Z" fill="#29285b"/>
  <path d="M103.65989,100.2133c-.23692.12156-.34245.3978-.25037.658.0926.26279.35435.4128.58765.359,1.23996-.13657,2.65166-.24468,3.69143.21416.9032.40504.97924,1.38428.98286,2.51613-.06828,1.77226-.43298,3.60193-.78629,5.37109-.18054.9063-.36728,1.84313-.51419,2.76805l-.00724.04604.00879.04552c.06983.36262.31503.39159.39108.39159h.00155c.83336-.00414,2.41681-4.11095,2.41526-4.11613.79146-2.37491,1.51464-5.39385.06156-7.6922-1.50068-2.02677-4.46271-1.71277-6.58208-.56127Z" fill="#29285b"/>
  <path d="M57.61276,96.95485l-.00052-.00103c-1.49861-3.68315-1.17478-8.01499.84164-11.29982,1.51051-2.33921,4.83569-1.82243,7.21318-.67352.23485.12674.52299.06621.68387-.14691.08587-.11381.12208-.25399.10191-.39521-.01966-.14122-.09363-.26589-.20692-.35124-1.09615-.82664-2.303-1.40136-3.58331-1.70759-1.82399-.45832-3.44364-.1645-4.81137.8763-2.54872,1.94038-3.52744,5.91683-3.59159,8.73662-.02845,3.41622,1.30928,6.7383,3.6697,9.11476.90475.91044,1.95538,1.69673,3.12292,2.33818.08018.04345.16812.06466.25554.06466.14122,0,.28037-.05483.3828-.15984.10139-.10346.15674-.24572.15209-.39056-.00466-.14536-.0688-.28451-.17174-.37711-1.94814-1.84002-3.27552-3.68056-4.05819-5.62767Z" fill="#29285b"/>
  <path d="M116.37192,72.7816c-2.19696-4.04888-7.52563-4.94949-11.41362-3.74574-.25658.06777-.41125.31348-.36883.58454.04294.26796.25554.44746.51678.44694,1.65742.0926,3.07946.30572,4.34322.65024.88302.2571,1.66414.5742,2.38111.96683,1.57413.92286,2.65787,2.3718,3.13585,4.19889,1.08063,3.63245,1.13857,7.71237.1883,13.2283-.51471,3.00859-1.28186,6.0415-2.02366,8.97561-.05121.20692.05794.42418.25399.50592.05328.02224.10915.03259.16347.03259.16967,0,.33159-.10087.40194-.26899,3.28897-8.14742,6.14962-17.55548,2.42146-25.57513Z" fill="#29285b"/>
  <path d="M84.8153,81.19232c1.11943-.2364,2.30145-1.08994,3.44468-1.91607,1.92848-1.39256,3.74885-2.70856,5.32608-1.44688.61041.47126.88923,1.03201.82923,1.66621-.14122,1.49447-2.06505,3.10895-3.36863,3.77005-.27417.11484-.41591.40504-.34452.70507.06725.28348.30314.47229.57472.47229.01397,0,.02742-.00052.04138-.00103,1.82916-.07294,3.74729-1.22082,4.77258-2.85754.81526-1.301.95338-2.73029.38487-4.03232-.6042-1.27927-1.74846-2.21713-3.22948-2.64183-1.56068-.39728-3.37794.18623-5.40264,1.73656-.30365.22864-.59386.45626-.87785.67921-.73301.57575-1.42567,1.11943-2.2042,1.55603-1.50947.76612-3.22431.91303-4.54962.41022-.28037-.15467-.61972-.0807-.80802.18002-.18933.26072-.15622.59541.08691.82095,1.30772,1.12719,3.29828,1.46395,5.32453.89906Z" fill="#29285b"/>
  <path d="M57.14719,62.80141c.00466.00052.00931.00052.01397.00052.22037,0,.39987-.14433.44074-.35487.76612-3.72402,1.75932-5.74871,3.32052-6.77089,1.52033-.99528,3.70074-1.12046,7.05282-.41022.24313.06673.48936-.04552.60368-.27572.11536-.2302.05639-.49712-.14226-.64869-1.21927-.93062-2.65373-1.51516-4.26407-1.73656-2.2461-.3021-4.17148.32952-5.56973,1.82088-1.77226,1.88917-2.49492,4.95932-1.88865,7.99481.02845.21778.2064.37452.43298.38073Z" fill="#29285b"/>
  <path d="M83.36635,47.56548c3.65418-3.17723,6.24894-3.77057,11.09394,1.42619.08846.11122.21726.17019.35124.17019.07553,0,.1526-.01862.22502-.05742.20123-.10708.29434-.33003.22864-.53747-.36211-1.22237-1.05011-2.36146-2.04591-3.38519-1.45257-1.49447-3.27138-2.19385-5.12692-1.97245-2.10281.25296-4.1094,1.67966-5.35815,3.80316-.11794.17588-.08484.40711.07966.54937.16295.14277.39573.14381.55247.00362Z" fill="#29285b"/>
  <path d="M64.33451,59.67797c-3.05619,1.23117-1.80588,8.81369-1.75105,9.13597l.02173.12674,5.08606,2.75615-2.76236,4.92983.0388.11174c.01448.0419,1.46602,4.23614,3.66918,7.31819l.25554.35642.19657-.39159c.58196-1.15667,1.66518-2.07591,2.9729-2.52234,1.3848-.47333,2.86634-.37918,4.0644.25761l.41642.2214-.02793-.47074c-.2752-4.64377-2.29421-10.68062-3.22896-12.87706-1.4893-3.49692-5.63543-10.28799-8.95129-8.95233Z" fill="#29285b"/>
  <path d="M87.32108,48.96632c-2.96411,1.43705-1.20013,8.91664-1.12357,9.23426l.03052.12519,5.26245,2.40232-2.41991,5.10623.04604.10915c.08535.20278,2.12609,5.00277,4.93139,7.91825l.24572.25554.17536-.30831c.60834-1.07029,1.6269-1.89279,2.86789-2.31645,1.11891-.38383,2.32525-.39315,3.39191-.02793l.36935.12674-.01914-.39004c-.22709-4.69964-2.93928-11.4038-4.217-13.91423-1.72518-3.38829-6.33015-9.87725-9.54101-8.32071Z" fill="#29285b"/>
  <path d="M180.25387,92.4223c.98648-1.6957,1.18875-3.26362,1.21151-4.13785,3.57814-2.34387,7.25249-8.08793,6.69226-12.12129-.46195-3.32673-3.48968-4.34374-4.7286-4.62152.04397-.93838-.07553-2.41164-.79302-4.41305-1.00666-2.80685-3.6935-3.29104-5.07623-3.34691.14691-1.55965.01345-4.20303-2.03194-6.2986-2.29111-2.34594-5.59404-1.3848-7.52976-.4904-.45005-1.29169-1.914-4.24907-5.91373-4.5041-3.42812-.22451-5.90597,2.93773-7.40354,5.7544-2.34128-1.76036-5.15382-3.81661-6.05599-4.23355-.21364-3.03394-1.76295-5.8232-4.26925-7.67461-2.59683-1.91865-5.85424-2.57562-8.93267-1.8064-3.32156.72732-6.08754,3.05877-7.39837,6.23652-1.26117,3.05722-.97252,6.38085.78991,9.11476,2.23162,3.59211,6.84228,5.47506,11.02048,4.53358.72473,1.16185,2.84461,3.03187,4.59049,4.46789-1.23841,4.79947-.4635,10.51508,2.0816,15.38853-1.03511.40504-2.8922,1.56482-3.4095,4.74257-.27727,1.70346.24054,3.49589,1.53947,5.33074-1.01235,1.13753-4.72498,5.0933-8.07551,5.90856-.4278.09518-2.3118-1.57258-3.39812-3.6309l-2.13126-2.77685c1.38532-8.49038.84992-17.32632-1.5493-25.55702-3.44261-12.36131-11.18084-23.54008-21.27484-30.76361,2.17782-.53437,3.89007-1.46653,5.21538-2.83685l.39315.25658.07604-.95958c.03156-.12725.04087-.24623.02949-.31452l.03725-.45108c1.00459-8.8349-2.90307-17.80637-9.95278-22.85415-1.95693-1.43446-4.26407-2.69201-7.04868-3.83989l.18985-1.00614c.26641-.5861.25761-1.43964.10967-1.9859C96.63345,1.02485,94.07025-.06147,91.96433.00268c-2.32938.06311-4.0913,1.37497-4.52324,3.39864l-.3321,1.7288c-3.11205.20123-6.10306.95855-8.89439,2.25334-.29434-.24572-.59075-.48315-.89544-.71594-1.00407-.75577-2.24662-1.55654-3.59521-2.31697C68.12319,1.25815,61.52611-.18458,55.15198.28615c-.14277.01035-.3678.02483-.60937.03983-.36728.02328-.77181.04863-1.00614.06932-.35849.05897-.74491.11639-1.14426.17536-1.18306.17588-2.52492.37556-3.56727.67973-6.64519,1.53171-12.44097,4.67222-16.76143,9.0832-4.12854,4.22424-6.84693,9.31133-7.86808,14.72018-3.35311,1.12098-6.39844,2.8203-9.05889,5.0545l-1.10443-1.01338c-.9989-1.20478-2.71063-1.46653-3.94956-1.19547-2.08315.34969-3.97697,2.04694-4.71153,4.22269-.61041,1.80795-.2752,3.57555.9063,4.83517l1.80329,1.68328c-4.90345,7.75117-4.0644,15.94617-2.58907,22.94674,1.18357,6.02029,2.89169,9.86277,5.07778,11.42707-.30314,1.30824-.51316,2.39405-.65748,3.39915-.65904,4.09026-.80646,8.36934-.43815,12.72135.79405,8.30674,3.31897,16.70039,7.30267,24.27516,3.89628,7.25715,10.03089,13.5035,17.73757,18.06192,4.99812,3.02463,10.24557,5.18538,15.60372,6.42378,15.19144,3.07274,30.37926-1.18047,43.74205-4.92569,8.58608-1.17116,16.38588-4.90449,22.55412-10.7939,3.71005-3.45606,6.83555-7.57167,9.29374-12.23664,3.06188,2.79392,6.53086,4.36391,10.0521,4.54393,1.36721.07294,2.77167-.0657,4.1663-.40504,7.97826-1.9409,14.30479-8.9663,16.24414-11.32724,1.39411.57058,3.05826.88406,4.69136.88406,2.18816,0,4.06543-.56644,5.28573-1.59586.99424-.83905,1.50895-1.99521,1.46912-3.28173,1.09925.02793,2.258-.10087,3.4214-.38901,3.26828-.81009,5.82734-2.11626,7.61253-3.88489,1.43446,2.18506,2.61959,4.23562,3.61694,6.25722,3.17879,6.66381,3.15965,11.24757-.04087,13.61265-2.56527,1.60724-5.74561,1.88089-8.82145,2.14574l-.09829.00879c-2.2461.11484-4.56307.1883-6.80348.25917-11.04531.34969-22.46721.71128-32.47948,6.07668-6.11599,3.49123-12.1456,7.56235-14.83088,13.66335-.70353,1.71261.75784,2.58183,1.64811.73353,2.86841-5.53352,8.44124-8.89025,14.37773-12.1156,3.50106-1.77019,7.47752-3.04067,12.15853-3.88489,5.60335-1.04804,11.38776-1.331,16.98232-1.60517,2.99877-.14691,6.09944-.29848,9.15821-.56644,2.15402-.22037,4.44926-.49298,6.73365-1.1815,5.22107-1.40446,7.60632-5.67112,6.54225-11.71003-.90423-4.60704-3.04377-9.10855-6.53966-13.75491ZM105.90702,35.7944c-.06828.00828-.13708.02431-.20485.04759-4.36857-2.74322-9.02527-4.71619-13.84802-5.86666l.85406-4.15854c2.63511.63265,5.42282,1.50895,8.51107,2.67649,3.67953,1.42101,7.1599,3.11361,10.35006,5.03226-1.35118,1.22858-3.20827,1.97142-5.66232,2.26886ZM89.44976,4.12604c.43556-1.1634,1.93831-1.5762,3.14051-1.30462,1.27358.29227,2.21299,1.19495,2.4644,2.36197l-.12829.67973c-1.8214-.47488-3.72091-.7356-5.65457-.77698l.17795-.9601ZM87.64504,3.71686v.00003l-.00013-.00003h.00013ZM95.49643,8.71084c2.82909,1.08425,5.14192,2.27869,7.07196,3.65366,5.8858,4.09388,9.53429,11.48656,9.37858,18.93459-6.96539-4.0644-14.46464-6.8459-22.29547-8.26846-1.8245-.35383-3.67901-.47902-5.53817-.47902-2.29059,0-4.58738.19037-6.84228.37659l-.49971.04138c-3.50468.32848-7.19714.80233-11.27706,1.44791.7775-3.95576,5.60439-8.37192,7.70306-10.29161,6.02547-5.64474,14.78484-7.7672,22.29909-5.41506ZM90.63695,25.3683l-.85509,4.16268c-.84216-.15415-1.70294-.28658-2.56579-.39573l.86182-4.1932c.8256.1107,1.66725.25089,2.55906.42625ZM58.19265,24.90687c.35124-.13864,1.28652-.51161,1.61345-.64455,3.33553-1.20375,4.04836-4.18441,3.2988-6.44499-.7299-2.20006-3.01998-4.11251-6.33584-3.10843-1.64242.57937-3.58021,1.25393-5.48696,1.85502-1.6988.43608-2.86479,1.19289-3.55745,2.30145-.90268,1.2891-1.09201,3.00653-.50643,4.59307.58868,1.59586,1.85761,2.78564,3.38674,3.18085,1.03459.30314,2.17833.26951,3.22638-.09467.73197-.26744,1.4624-.53747,2.19178-.81009l2.9341,8.29174c-4.60187,1.60051-8.39986,2.97549-10.95582,3.91542,1.44429-2.70805,2.63614-5.25366,3.63608-7.761l.07553-.19399-.65076-.47126c-5.7751-4.55324-13.39487-6.6457-20.9655-5.76682,3.09188-7.68599,10.06452-13.668,18.74526-16.05067,8.36261-2.51613,17.52444-1.53534,24.59588,2.617-1.914,1.47636-3.80161,3.29104-5.76475,5.54231-2.02935,2.52596-4.8093,5.98512-4.3934,9.81983-.12156,1.78209,1.45153,3.44571,4.93914,5.21021-2.2999.75732-4.73792,1.57879-7.26025,2.44681l-2.95531-8.35485.18933-.07242ZM57.19323,22.12278c-1.49137.48678-2.99928,1.01235-4.40685,1.50844l-.00724.00259c-.8463.32745-1.91089.04914-2.53372-.66576-.54626-.59179-.72939-1.39463-.50281-2.20316.24261-.86699.89647-1.52964,1.77433-1.78209l.53902-.21778c1.94348-.7837,3.92162-1.51361,5.42023-2.05936.3321-.10915.6461-.15829.93889-.15829,1.18306,0,2.02728.80336,2.36197,1.71225.41177,1.11995.12415,2.53682-1.42825,3.17103l-2.15557.69214ZM65.6862,26.54204c6.86659-1.07029,13.58472-1.99935,20.27284-1.81674l-.86182,4.1932c-4.66653-.36728-9.2296.02483-13.57075,1.16392-.03311-.01862-.06621-.03518-.09984-.04914-3.81713-1.61707-5.22573-2.80116-5.74044-3.49123ZM26.7519,23.86503c2.79599-8.40865,9.35737-15.10764,17.9926-18.37643.36418-.12519.74077-.2602,1.11995-.39677.57265-.20588,1.15202-.41384,1.68639-.58713l1.94814-.49764c.94976-.28451,2.17161-.47643,3.24965-.64559.39521-.06208.7775-.12208,1.11684-.18157,7.97464-.90113,16.04239,1.0439,22.20391,5.33332-.16553.09518-.32952.19243-.49195.29382-.08018.0507-.15829.10346-.23692.15674l-.00155.00155c-6.83762-4.57342-15.7734-6.15996-24.55243-4.35201-8.56591,1.76398-15.93635,6.62139-20.2237,13.32917-1.24306,1.99263-2.2161,4.07216-2.89376,6.18428-.33728.06828-.68956.14795-1.07856.24313.05225-.16916.10656-.33779.1614-.50488ZM7.9787,35.66973c-.86492-.95855-.63731-2.1054-.4247-2.70391.47953-1.34911,1.7288-2.46854,2.97083-2.66097l.00207-.00052c.19606-.03207.38642-.04863.57265-.04863.53075,0,1.0258.13191,1.50068.39832l1.64397,1.51154c-.16657.5473-.62282,1.54982-1.87313,2.90927s-2.21092,1.89899-2.74167,2.11109l-1.65069-1.5162ZM7.65902,55.28716l-.00052-.0031c-.66886-5.37471.21726-10.78666,2.63407-16.08584.82923-.30572,2.10384-1.02063,3.63814-2.68839,2.40957-2.62062,2.51872-4.42857,2.51872-4.73016,2.26524-1.87261,4.74464-3.33191,7.37302-4.33908,8.23846-3.25172,18.13382-1.96935,25.27561,3.26104-1.37084,2.97445-3.0505,6.07978-5.12951,9.48463-8.30726,13.46832-18.2947,23.59854-29.71298,30.12785-.59748.45108-1.14736.56075-1.68173.33107-2.64804-1.13805-4.33546-10.18918-4.91483-15.35801ZM82.89924,133.85101c-9.76448,2.37025-21.2407,4.45806-32.31963,1.98176-10.43076-2.57614-20.12903-8.85404-26.60713-17.22234-3.00239-3.9718-5.49834-8.73351-7.4201-14.15633-3.78195-10.20522-5.1202-20.79531-3.87507-30.64308,1.17892.08949,2.44371-.33986,3.75661-1.27358,11.56726-6.83452,21.53246-17.2989,29.61987-31.10295.0988-.16967.19554-.33935.29227-.50902l.07966-.13915c3.4333-1.28393,7.46355-2.7396,11.52226-4.1632-7.67254,5.66801-13.68352,14.14857-17.0325,24.0848-3.59366,10.66251-3.86938,22.30064-.77698,32.76658,3.69608,13.08915,11.48398,24.26947,21.92457,31.47851,6.86297,4.92104,14.84019,7.77755,23.17125,8.31347-.79871.20537-1.57155.39935-2.33508.58454ZM114.56863,120.1768l-.00207.00207c-13.55368,12.65669-34.83318,13.52316-50.5983,2.05987-9.81777-6.93849-17.12044-17.48099-20.56201-29.68504-3.53158-12.65462-3.01273-25.54771,1.4624-36.30747,4.33287-10.7489,12.96086-19.21756,23.66165-23.23022.8525-.28141,1.70397-.56075,2.54924-.8344.05897-.01914.11691-.04397.17536-.07553,6.11341-1.79295,12.33286-2.03401,18.48972-.71128,17.37288,3.47106,32.51931,18.52748,37.6902,37.46932,5.34833,18.79441.17743,39.41539-12.86619,51.31268ZM139.28711,62.31618c-3.32621.41694-6.66847-1.07805-8.37554-3.77316l-.00103-.00155c-1.64035-2.54975-1.71432-5.6856-.19864-8.38744,1.56223-2.78564,4.45185-4.49324,7.58563-4.49324.06621,0,.13243.00052.19916.00207.02586-.00052.05173-.00052.07811-.00052,2.23886,0,4.51755,1.05632,6.10979,2.83582,1.41429,1.58086,2.08936,3.49227,1.91244,5.40212-1.04442.21623-2.94704.92906-5.14244,3.24396-1.6031,1.68949-2.31387,3.38415-2.16747,5.17193ZM141.63564,63.35181l-.05483-.22709c-.24985-1.01856-.59179-2.41319,1.41015-4.52272,2.54717-2.68322,4.52531-2.75357,4.77671-2.6558.06777.0269.30572.1495,1.11219.70197-3.25172,1.09408-6.39689,4.10112-6.53086,7.5339-.54006-.54626-.67818-.75939-.71335-.83026ZM145.51691,65.86173c-.1345.27779-.26175.5623-.38021.84888-.45574-.3859-.9001-.77181-1.30514-1.13391,1.08115-2.25489,2.25541-3.88024,3.7954-5.25418.78267-.73197,1.63362-1.33825,2.53475-1.98073.18364-.13088.3678-.26227.55144-.3947.90889.65904,1.94038,1.42205,2.94807,2.18092-.02069-.00052-.04087-.00052-.06104-.00052-1.35945,0-2.64856.33779-3.82282.9989-1.69001.77853-3.0836,2.32732-4.26045,4.73533ZM164.78102,100.4197c-1.55396,1.30979-5.14451,1.47378-7.84169.35693-1.67552-.69421-3.74522-1.83382-5.52369-3.04067l-2.75046-2.11626c-1.79295-1.58706-3.85179-3.96249-3.47675-6.26704.38487-2.36146,1.61759-3.02515,2.42146-3.20155,1.83899,2.7277,5.02502,4.42806,9.00561,4.80516,1.05166,2.37077,4.01474,6.44655,8.85042,7.53339.13295.80905-.08691,1.42567-.6849,1.93003ZM170.52767,96.31186c-6.40878,1.58965-10.03089-2.89272-11.46587-5.29453.63162-.02638,1.2441-.08173,1.82399-.16605.28658-.03569.48884-.27727.48057-.5742-.00776-.29693-.22244-.52764-.48419-.54523l-.27986-.04759c-3.36656-.57679-6.84797-1.17323-9.41996-3.33604-2.7127-2.61028-3.68832-6.50966-4.18648-9.2177-.68335-3.59728-.30055-7.16248,1.07753-10.03917.62386-1.29738,1.29583-2.24507,2.04073-2.886,1.64811-1.24203,3.58072-1.64966,5.29918-1.11736,3.08412.98493,5.548,3.59055,8.00257,6.39482,1.43705,1.77536,4.4265,5.46989,3.79489,7.93636-.21623.84423-.83388,1.46498-1.87261,1.89124-2.02625.67973-5.83717,1.55344-8.5897-.22709-2.5632-1.75312-3.61125-4.84603-4.46478-7.8629-.08018-.2902-.35435-.44953-.64765-.38073-.29176.0688-.46919.33986-.41229.6311.43453,2.21713.98493,3.95525,1.72932,5.46472.06983.14898.14484.29745.22658.4485-.25865-.01604-.49919-.0388-.71904-.06828-.69369-.09777-1.27048-.25037-1.76346-.46815-.2452-.10553-.53178-.03259-.70249.19192-.11329.16502-.12829.36004-.04294.54989.4247.93838,3.7235,1.87779,4.16889,1.93055.19657.04397.39935.0269.59024-.04656,1.49654,1.52706,3.42036,2.41112,5.42695,2.49337.89906.07708,1.9021.04759,2.98221-.08794.61041-.08173,1.25651-.17743,1.8871-.32331.7118,1.95228,1.82037,3.27862,3.29828,3.9449,1.33204.59851,2.67701.52661,3.65263.32228.12519,1.13805.41642,2.5332,1.08891,3.29673.35073.39677,1.15098,1.05787,2.62166,1.11839.61403.82302,1.21358,1.6538,1.78415,2.47371-1.51464,1.62586-3.84299,2.83634-6.92504,3.60038ZM178.83803,90.62574c-.21571-.2633-.43349-.52506-.65335-.78422.33262-.10656.67869-.23537,1.03563-.38539-.08794.39521-.21571.78577-.38228,1.16961ZM174.63603,87.7175c-.33986-.3859-.58868-1.82502-.63886-3.02722l4.90655-7.88204c.14381-.21882.08691-.50074-.13139-.65541-.2183-.15571-.50436-.11639-.6611.08742l-5.83769,7.28974c-.48471.18261-1.8602.60058-3.10843.03362-.93269-.4247-1.66104-1.34135-2.16644-2.72667.20588-.1076.38435-.21364.55402-.32848,1.14167-.84578,1.79554-1.95072,1.94452-3.2838.31245-.58041,3.47933-6.47034,3.47933-6.47034.12001-.20899.05483-.46764-.15157-.60213-.2064-.13398-.47074-.09001-.60989.10036l-3.09291,4.02301c-.98338-3.03084-3.54451-6.23859-5.62922-8.49194l1.21772-1.92589c.15157-.22244.10915-.51626-.09984-.69938-.2095-.18312-.50643-.18467-.70197-.01035l-1.62431,1.37549c-.314-.31503-.60679-.60058-.86906-.85095-1.18978-1.11943-3.08464-2.5632-5.45851-3.21551.90475-2.01332,3.09447-6.03892,5.99133-5.85372,3.86006.24572,4.25528,3.91542,4.26976,4.07009.03259.36573.25865.69369.58972.85664.3321.16088.72939.13915,1.03821-.06001.04087-.02638,4.12389-2.59734,6.16617-.50643,2.19541,2.2492,1.27151,5.61887,1.2622,5.65146-.10346.35228-.01914.7268.22554,1.002.24365.27365.60679.4009.972.34038.03259-.00569,3.29518-.55092,4.16941,1.88606.99631,2.77995.59903,4.19165.58661,4.23614-.11381.314-.07087.66835.11432.94717s.49557.45522.83026.47177c.14277.00724,3.50468.21054,3.88696,2.95583.42315,3.04739-2.81306,8.45262-6.18376,10.32782-3.21293,1.78571-4.8062,1.42929-5.23969.93527Z" fill="#29285b"/>
</svg>